# xmcd
#
# Track frame offsets:
#	182
#	13010
#	27905
#	45120
#	58367
#	69042
#	80812
#	91805
#	110037
#	124497
#	135197
#	148262
#	165840
#	179767
#	199642
#	213707
#	226832
#	238722
#	249945
#	266292
#
# Disc length: 3787 seconds
#
# Revision: 2
# Processed by: cddbd v1.5.1PL0 Copyright (c) Steve Scherf et al.
# Submitted via: audiograbber 1.83.01
#
DISCID=120ec914
DTITLE=Hank Williams Jr. - Hank Williams Jr. (20) Hits
DYEAR=1995
DGENRE=Country
TTITLE0=Your Cheatin' Heart
TTITLE1=You Win Again
TTITLE2=All For The Love Of Sunshine
TTITLE3=Rainin' In My Heart
TTITLE4=Ain't That A Shame
TTITLE5=Mobile Boogie
TTITLE6=I Fought The Law
TTITLE7=Family Tradition
TTITLE8=Whiskey Bent And Hell Bound
TTITLE9=White Lightnin
TTITLE10=Women I've Never Had
TTITLE11=The Conversation
TTITLE12=Old Habits
TTITLE13=Kaw-Liga
TTITLE14=The American Way
TTITLE15=If You Don't Like Hank Williams
TTITLE16=Dixie On My Mind
TTITLE17=Texas Women
TTITLE18=Ramblin' Man
TTITLE19=All My Rowdy Friends
EXTD=
EXTT0=
EXTT1=
EXTT2=
EXTT3=
EXTT4=
EXTT5=
EXTT6=
EXTT7=
EXTT8=
EXTT9=
EXTT10=
EXTT11=
EXTT12=
EXTT13=
EXTT14=
EXTT15=
EXTT16=
EXTT17=
EXTT18=
EXTT19=
PLAYORDER=
